PathFileType	3	(X/Y/Z)	running_2__view2_aligned.trc
DataRate	CameraRate	NumFrames	NumMarkers	Units	OrigDataRate	OrigDataStartFrame	OrigNumFrames
100.0	100.0	10	19	mm	100.0	5023	6434
Frame#	Time	pelvis			neck			head			hip_left			hip_right			knee_left			knee_right			ankle_left			ankle_right			heel_left			heel_right			toe_left			toe_right			shoulder_left			shoulder_right			elbow_left			elbow_right			wrist_left			wrist_right			
		X1	Y1	Z1	X2	Y2	Z2	X3	Y3	Z3	X4	Y4	Z4	X5	Y5	Z5	X6	Y6	Z6	X7	Y7	Z7	X8	Y8	Z8	X9	Y9	Z9	X10	Y10	Z10	X11	Y11	Z11	X12	Y12	Z12	X13	Y13	Z13	X14	Y14	Z14	X15	Y15	Z15	X16	Y16	Z16	X17	Y17	Z17	X18	Y18	Z18	X19	Y19	Z19	
5023	50.22000	-10.785177	932.293331	242.703603	-9.248947	1474.270742	371.476969	-2.579637	1558.778616	524.623559	61.814444	933.541153	236.392222	-83.384682	931.045468	249.014989	92.975268	526.913316	389.426746	-117.541695	506.013836	266.869261	85.114813	179.533554	248.147378	-137.202132	219.470004	-18.827986	80.450562	144.829129	209.268830	-136.671539	204.252904	-72.254734	85.077769	95.766174	389.645141	-139.533598	73.790891	74.726847	137.604323	1444.919124	270.927608	-181.702965	1424.779431	363.509020	214.288377	1229.382407	101.444822	-260.854676	1161.432860	286.460731	277.873447	1073.084106	293.201466	-98.212794	1109.369856	467.239073
5024	50.23000	-8.248152	932.072860	242.658581	-6.164470	1473.949159	371.317222	0.811068	1558.570331	524.412312	64.424403	933.415756	236.218621	-80.920519	930.729922	249.098556	94.520398	526.718390	390.949864	-115.477478	506.042751	267.414811	86.261614	174.698616	255.646037	-135.126483	222.768458	-26.217351	81.660372	138.601797	217.205573	-134.385660	208.747267	-80.463367	85.997235	94.450708	401.702744	-138.119407	73.112635	64.379158	140.648116	1444.387149	270.512628	-178.811611	1424.560602	363.740387	216.815637	1228.706552	101.229133	-258.649796	1161.524044	286.697716	280.608283	1072.472624	293.759018	-94.403584	1110.279955	467.422128
5025	50.24000	-5.711126	931.852390	242.613560	-3.079994	1473.627576	371.157474	4.201774	1558.362046	524.201064	67.034362	933.290359	236.045020	-78.456356	930.414377	249.182122	96.065528	526.523463	392.472982	-113.413261	506.071666	267.960361	87.408416	169.863678	263.144696	-133.050833	226.066912	-33.606715	82.870183	132.374464	225.142317	-132.099782	213.241630	-88.672001	86.916701	93.135242	413.760347	-136.705215	72.434378	54.031469	143.691909	1443.855173	270.097648	-175.920257	1424.341772	363.971754	219.342896	1228.030698	101.013443	-256.444916	1161.615228	286.934701	283.343119	1071.861142	294.316571	-90.594375	1111.190053	467.605183
5026	50.25000	-3.174101	931.631919	242.568539	0.004483	1473.305993	370.997727	7.592480	1558.153762	523.989816	69.644321	933.164962	235.871419	-75.992193	930.098832	249.265688	97.610658	526.328536	393.996100	-111.349044	506.100581	268.505911	88.555218	165.028739	270.643356	-130.975184	229.365366	-40.996079	84.079993	126.147132	233.079060	-129.813903	217.735993	-96.880634	87.836168	91.819777	425.817950	-135.291024	71.756122	43.683780	146.735702	1443.323198	269.682667	-173.028903	1424.122943	364.203120	221.870156	1227.354843	100.797753	-254.240035	1161.706412	287.171686	286.077955	1071.249659	294.874123	-86.785166	1112.100151	467.788239
5027	50.26000	-0.637076	931.411449	242.523518	3.088959	1472.984410	370.837980	10.983185	1557.945477	523.778568	72.254279	933.039565	235.697817	-73.528030	929.783287	249.349254	99.155788	526.133609	395.519218	-109.284828	506.129495	269.051461	89.702019	160.193801	278.142015	-128.899535	232.663820	-48.385444	85.289804	119.919799	241.015803	-127.528024	222.230356	-105.089268	88.755634	90.504311	437.875552	-133.876833	71.077865	33.336091	149.779495	1442.791222	269.267687	-170.137549	1423.904114	364.434487	224.397415	1226.678989	100.582063	-252.035155	1161.797595	287.408670	288.812791	1070.638177	295.431676	-82.975957	1113.010249	467.971294
5028	50.27000	1.899949	931.190978	242.478497	6.173436	1472.662827	370.678232	14.373891	1557.737193	523.567320	74.864238	932.914168	235.524216	-71.063867	929.467741	249.432820	100.700918	525.938682	397.042336	-107.220611	506.158410	269.597011	90.848821	155.358863	285.640674	-126.823886	235.962274	-55.774808	86.499614	113.692467	248.952546	-125.242146	226.724719	-113.297901	89.675101	89.188845	449.933155	-132.462641	70.399609	22.988402	152.823287	1442.259246	268.852706	-167.246195	1423.685285	364.665854	226.924675	1226.003135	100.366373	-249.830275	1161.888779	287.645655	291.547627	1070.026695	295.989229	-79.166747	1113.920347	468.154349
5029	50.28000	4.501575	932.685543	242.541663	8.476779	1474.387837	370.976096	16.203143	1558.964055	523.808770	77.496164	934.510162	235.667892	-68.492588	930.860882	249.415469	102.368281	527.307768	392.341439	-105.200627	507.950823	271.803372	91.970694	152.626873	283.698622	-125.058799	237.540174	-49.687960	87.551183	110.110889	247.001471	-123.444301	228.240381	-106.794381	90.571914	87.244374	451.087781	-131.029436	72.734352	28.829137	155.757491	1443.628478	271.311278	-164.480606	1426.462456	363.473653	230.092306	1226.374389	105.863855	-248.378287	1167.568373	283.114012	287.385625	1074.364415	299.929967	-80.963074	1117.212268	462.747525
5030	50.29000	7.103201	934.180109	242.604829	10.780122	1476.112846	371.273960	18.032394	1560.190917	524.050219	80.128089	936.106157	235.811568	-65.921309	932.254024	249.398118	104.035644	528.676853	387.640542	-103.180644	509.743235	274.009733	93.092567	149.894884	281.756569	-123.293711	239.118074	-43.601112	88.602751	106.529311	245.050395	-121.646455	229.756043	-100.290862	91.468727	85.299902	452.242406	-129.596231	75.069094	34.669872	158.691695	1444.997710	273.769850	-161.715016	1429.239626	362.281451	233.259937	1226.745644	111.361336	-246.926299	1173.247966	278.582369	283.223622	1078.702136	303.870706	-82.759401	1120.504188	457.340700
5031	50.30000	9.704826	935.674674	242.667995	13.083465	1477.837856	371.571824	19.861646	1561.417779	524.291669	82.760015	937.702151	235.955244	-63.350030	933.647165	249.380768	105.703007	530.045938	382.939646	-101.160660	511.535648	276.216093	94.214439	147.162894	279.814517	-121.528624	240.695974	-37.514264	89.654319	102.947733	243.099320	-119.848610	231.271706	-93.787342	92.365541	83.355431	453.397031	-128.163026	77.403837	40.510607	161.625899	1446.366941	276.228421	-158.949427	1432.016796	361.089250	236.427568	1227.116899	116.858818	-245.474312	1178.927560	274.050725	279.061619	1083.039856	307.811445	-84.555728	1123.796109	451.933876
5032	50.31000	12.306452	937.169240	242.731162	15.386808	1479.562865	371.869688	21.690897	1562.644641	524.533119	85.391940	939.298145	236.098920	-60.778751	935.040306	249.363417	107.370370	531.415024	378.238749	-99.140676	513.328060	278.422454	95.336312	144.430904	277.872464	-119.763537	242.273874	-31.427415	90.705888	99.366156	241.148245	-118.050765	232.787368	-87.283823	93.262354	81.410959	454.551657	-126.729822	79.738580	46.351342	164.560103	1447.736173	278.686993	-156.183837	1434.793966	359.897049	239.595199	1227.488154	122.356299	-244.022324	1184.607154	269.519082	274.899617	1087.377576	311.752183	-86.352055	1127.088029	446.527051
